<?xml version="1.0" standalone="no"?>
<!DOCTYPE svg PUBLIC "-//W3C//DTD SVG 20010904//EN"
 "http://www.w3.org/TR/2001/REC-SVG-20010904/DTD/svg10.dtd">
<svg version="1.0" xmlns="http://www.w3.org/2000/svg"
 width="573.000000pt" height="446.000000pt" viewBox="0 0 573.000000 446.000000"
 preserveAspectRatio="xMidYMid meet">

<g transform="translate(0.000000,446.000000) scale(0.100000,-0.100000)"
fill="#3B82F6" stroke="none">
<path d="M590 4284 c-87 -23 -157 -62 -223 -124 -75 -70 -124 -148 -148 -238
-18 -64 -19 -139 -19 -1672 0 -1437 2 -1608 16 -1628 39 -56 81 -23 484 382
l345 346 1725 0 c1886 0 1772 -3 1898 57 75 36 190 150 226 224 58 120 56 75
56 1194 0 1119 2 1074 -56 1194 -36 73 -151 189 -224 224 -126 61 5 57 -2100
56 -1654 0 -1933 -2 -1980 -15z"/>
<path d="M5130 3135 c0 -73 3 -86 18 -91 88 -26 170 -93 214 -176 l23 -43 3
-1225 2 -1225 -267 267 -268 268 -1385 2 -1385 3 -57 27 c-78 36 -142 104
-169 179 l-22 59 -85 0 -85 0 7 -42 c3 -24 24 -80 46 -124 63 -129 178 -223
315 -259 52 -13 228 -15 1399 -15 l1340 0 276 -274 c277 -277 325 -315 390
-316 36 0 86 34 107 72 17 31 18 100 18 1313 l0 1280 -23 66 c-55 160 -176
277 -331 323 -84 25 -81 27 -81 -69z"/>
</g>
</svg>
